# xmcd CD database file
#
# Track frame offsets:
#	150
#	35265
#	66487
#	93035
#	120515
#	153857
#	181465
#	211860
#
# Disc length: 3236 seconds
#
# Revision: 0
# Processed by: cddbd v1.5.2PL0 Copyright (c) Steve Scherf et al.
# Submitted via: CDex 1.51
#
DISCID=5f0ca208
DTITLE=migthy dow - SOCA SALSA RUMBA - MIGHTY DOW
DYEAR=1993
DGENRE=SOCA
TTITLE0=ST MAARTEN RUMBA
TTITLE1=SOCA SALSA
TTITLE2=BULA BULA
TTITLE3=SUKE
TTITLE4=LOVE
TTITLE5=NOT BEFORE
TTITLE6=SINT MAARTEN STYLE
TTITLE7=BULA [INSTR]
EXTD=YEAR: 1993
EXTT0=
EXTT1=
EXTT2=
EXTT3=
EXTT4=
EXTT5=
EXTT6=
EXTT7=
PLAYORDER=
